<?xml version="1.0" standalone="no"?>
<!DOCTYPE svg PUBLIC "-//W3C//DTD SVG 20010904//EN"
 "http://www.w3.org/TR/2001/REC-SVG-20010904/DTD/svg10.dtd">
<svg version="1.0" xmlns="http://www.w3.org/2000/svg"
 height="48.000000pt" viewBox="0 0 48.000000 48.000000"
 preserveAspectRatio="xMidYMid meet">

<g transform="translate(0.000000,48.000000) scale(0.100000,-0.100000)"
fill="#000000" stroke="none">
<path d="M204 378 c-15 -29 -27 -54 -29 -56 -1 -1 -28 -7 -61 -13 -32 -6 -63
-15 -69 -20 -6 -6 8 -27 38 -57 l47 -48 -11 -58 c-14 -80 -5 -87 65 -47 l56
31 56 -31 c70 -40 79 -33 65 47 l-11 58 47 48 c55 56 52 64 -32 78 -32 5 -59
11 -60 12 -1 2 -14 27 -29 56 -14 28 -31 52 -36 52 -5 0 -22 -24 -36 -52z m61
-47 c17 -38 21 -40 72 -47 l55 -7 -37 -37 c-35 -36 -36 -39 -29 -88 4 -29 4
-52 0 -52 -4 0 -25 9 -46 20 l-40 20 -40 -20 c-21 -11 -42 -20 -46 -20 -4 0
-4 23 0 52 7 49 6 52 -29 88 l-37 37 55 7 c51 7 55 9 72 47 10 21 21 39 25 39
4 0 15 -18 25 -39z"/>
</g>
</svg>
