<?xml version="1.0" standalone="no"?>
<!DOCTYPE svg PUBLIC "-//W3C//DTD SVG 20010904//EN"
 "http://www.w3.org/TR/2001/REC-SVG-20010904/DTD/svg10.dtd">
<svg version="1.0" xmlns="http://www.w3.org/2000/svg"
 width="48" height="48" viewBox="0 0 640.000000 640.000000"
 preserveAspectRatio="xMidYMid meet">

<g transform="translate(0.000000,640.000000) scale(0.100000,-0.100000)"
fill="#000000" stroke="none">
<path d="M1405 5875 c-31 -11 -132 -107 -456 -432 -354 -355 -419 -424 -428
-458 -15 -55 -15 -4284 -1 -4337 14 -50 55 -97 105 -119 38 -18 125 -19 2190
-19 2082 0 2151 1 2190 19 56 26 849 822 870 873 13 33 15 277 15 2186 l0
2149 -23 44 c-13 24 -43 58 -66 74 l-43 30 -2156 2 c-1840 2 -2163 0 -2197
-12z m1140 -565 l-190 -190 -595 0 -595 0 190 190 190 190 595 0 595 0 -190
-190z m770 0 l-190 -190 -115 0 -115 0 190 190 190 190 115 0 115 0 -190 -190z
m1720 0 l-190 -190 -590 0 -590 0 190 190 190 190 590 0 590 0 -190 -190z
m275 -3955 l-190 -190 0 1840 0 1840 188 188 187 187 3 -1837 2 -1838 -190
-190z m-3068 3062 c3 -323 3 -324 27 -359 13 -19 40 -46 59 -59 l36 -24 439
-3 c432 -3 440 -2 484 19 27 13 55 37 71 62 l27 40 5 321 5 321 670 0 670 0 3
-1917 2 -1918 -1920 0 -1920 0 0 1920 0 1920 670 0 669 0 3 -323z m766 125 l2
-192 -192 2 -193 3 -3 180 c-1 98 0 185 3 192 3 11 45 13 192 11 l188 -3 3
-193z"/>
<path d="M2740 3569 c-32 -13 -77 -56 -98 -94 -15 -27 -17 -97 -20 -684 l-3
-655 -227 226 c-125 124 -242 233 -261 243 -54 27 -150 17 -197 -21 -20 -16
-45 -45 -55 -64 -25 -46 -25 -129 0 -178 11 -20 203 -220 428 -444 430 -428
430 -428 518 -428 68 1 106 34 521 451 398 400 412 416 423 465 21 90 -25 187
-106 220 -39 17 -111 18 -150 4 -15 -6 -135 -118 -265 -248 l-238 -237 0 651
0 650 -25 50 c-34 69 -90 104 -165 103 -30 0 -66 -5 -80 -10z"/>
</g>
</svg>
